
<svg width="658px" height="384px" viewBox="0 0 658 384" version="1.1" xmlns="http://www.w3.org/2000/svg" xmlns:xlink="http://www.w3.org/1999/xlink">
    <g id="Page-1" stroke="none" stroke-width="1" fill="none" fill-rule="evenodd">
        <g id="metarank2" transform="translate(-1182.000000, -641.000000)" fill="currentColor">
            <g id="Group-Copy" transform="translate(1182.000000, 641.000000)">
                <path d="M1,184 L1,42 L173.418141,42 C179.910033,42 185.755535,43.5913374 190.952103,46.7740122 C196.14867,49.956687 200.286584,54.1601715 203.370932,59.3819073 C206.455281,64.6087599 208,70.3191539 208,76.5207646 L208,184 L173.418141,184 L173.418141,78.2349062 C173.418141,77.9099868 173.255271,77.5850675 172.932076,77.2550313 C172.603791,76.9301119 172.280597,76.766373 171.957402,76.766373 L123.495974,76.766373 C123.167689,76.766373 122.844494,76.9301119 122.521299,77.2550313 C122.193015,77.5850675 122.03269,77.9099868 122.03269,78.2349062 L122.03269,184 L87.2116153,184 L87.2116153,78.2349062 C87.2116153,77.9099868 87.0462006,77.5850675 86.7230056,77.2550313 C86.394721,76.9301119 86.071526,76.766373 85.7483311,76.766373 L37.0425984,76.766373 C36.7143138,76.766373 36.4318363,76.9301119 36.1900763,77.2550313 C35.9457715,77.5850675 35.8236191,77.9099868 35.8236191,78.2349062 L35.8236191,184 L1,184 Z" id="Fill-39"></path>
                <path d="M289,384 L289,242 L461.418141,242 C467.910033,242 473.755535,243.591337 478.954648,246.774012 C484.14867,249.956687 488.286584,254.160172 491.370932,259.381907 C494.455281,264.60876 496,270.319154 496,276.520765 L496,384 L461.418141,384 L461.418141,278.234906 C461.418141,277.909987 461.255271,277.585067 460.932076,277.255031 C460.603791,276.930112 460.280597,276.766373 459.957402,276.766373 L325.042598,276.766373 C324.714314,276.766373 324.431836,276.930112 324.190076,277.255031 C323.945772,277.585067 323.823619,277.909987 323.823619,278.234906 L323.823619,384 L289,384 Z" id="Fill-40"></path>
                <path d="M257.774152,99.5337549 L332.223289,99.5337549 L332.223289,78.2349062 C332.223289,77.9074284 332.059501,77.5825091 331.734485,77.2524728 C331.404351,76.9301119 331.081894,76.7638146 330.754319,76.7638146 L259.243122,76.7638146 C258.915547,76.7638146 258.590531,76.9301119 258.262956,77.2524728 C257.935381,77.5825091 257.774152,77.9074284 257.774152,78.2349062 L257.774152,99.5337549 Z M240.387076,179.225988 C235.158669,176.043313 230.959053,171.842387 227.775432,166.615534 C224.589251,161.393799 223,155.683405 223,149.476677 L223,76.5182062 C223,70.3191539 224.589251,64.6062015 227.775432,59.3819073 C230.959053,54.1601715 235.158669,49.956687 240.387076,46.7740122 C245.610365,43.588779 251.322457,42 257.53103,42 L332.46897,42 C338.836212,42 344.630198,43.588779 349.856046,46.7740122 C355.079335,49.956687 359.243122,54.1601715 362.347409,59.3819073 C365.446577,64.6062015 367,70.3191539 367,76.5182062 L367,130.626236 L257.774152,130.626236 L257.774152,147.765094 C257.774152,148.092572 257.935381,148.417491 258.262956,148.74241 C258.590531,149.072447 258.915547,149.233627 259.243122,149.233627 L367,149.233627 L367,184 L257.53103,184 C251.322457,184 245.610365,182.408663 240.387076,179.225988 L240.387076,179.225988 Z" id="Fill-41"></path>
                <path d="M403.357962,179.247834 C398.13831,176.079723 393.945726,171.898021 390.767435,166.697633 C387.58659,161.499792 386,155.812983 386,149.637204 L386,0 L420.715923,0 L420.715923,42.6497993 L497,42.6497993 L497,77.2545329 L420.715923,77.2545329 L420.715923,147.930907 C420.715923,148.256886 420.876882,148.582865 421.206463,148.906298 C421.530935,149.234824 421.855407,149.39272 422.182433,149.39272 L497,149.39272 L497,184 L420.715923,184 C414.359343,184 408.572504,182.415945 403.357962,179.247834" id="Fill-42"></path>
                <path d="M550.245681,149.409818 L623.225848,149.409818 L623.225848,126.757818 L548.776711,126.757818 L548.776711,147.948727 C548.776711,148.274545 548.935381,148.597818 549.265515,148.923636 C549.590531,149.249455 549.918106,149.409818 550.245681,149.409818 L550.245681,149.409818 Z M548.53103,184 C542.161228,184 536.367242,182.431076 531.143954,179.293227 C525.915547,176.155379 521.751759,172.013621 518.652591,166.862908 C515.548305,161.714718 514,156.08223 514,149.965443 L514,96.619498 L623.225848,96.619498 L623.225848,79.7245554 C623.225848,79.4042124 623.059501,79.081347 622.737044,78.7584815 C622.404351,78.4381385 622.081894,78.2741834 621.756878,78.2741834 L514,78.2741834 L514,44 L623.46897,44 C629.838772,44 635.632758,45.5689242 640.856046,48.7067726 C646.081894,51.844621 650.243122,55.9889015 653.347409,61.1370917 C656.446577,66.2878043 658,71.9202926 658,78.0345567 L658,184 L548.53103,184 Z" id="Fill-43"></path>
                <path d="M0,384 L0,276.520765 C0,270.319154 1.58634076,264.60876 4.75902228,259.381907 C7.93170379,254.16273 12.116889,249.956687 17.3273298,246.774012 C22.5326698,243.591337 28.3118469,242 34.6546595,242 L113,242 L113,276.766373 L36.1185817,276.766373 C35.7921322,276.766373 35.468233,276.930112 35.1443339,277.255031 C34.8153339,277.585067 34.6546595,277.907428 34.6546595,278.234906 L34.6546595,384 L0,384 Z" id="Fill-44"></path>
                <path d="M165.245681,349.236185 L238.225848,349.236185 L238.225848,326.466245 L163.776711,326.466245 L163.776711,347.767652 C163.776711,348.09513 163.935381,348.420049 164.265515,348.747527 C164.590531,349.075005 164.918106,349.236185 165.245681,349.236185 L165.245681,349.236185 Z M163.53103,384 C157.161228,384 151.367242,382.411221 146.143954,379.225988 C140.915547,376.043313 136.751759,371.844945 133.652591,366.618093 C130.548305,361.396357 129,355.685963 129,349.479235 L129,295.371205 L238.225848,295.371205 L238.225848,278.234906 C238.225848,277.909987 238.059501,277.585067 237.737044,277.25759 C237.404351,276.930112 237.081894,276.766373 236.756878,276.766373 L129,276.766373 L129,242 L238.46897,242 C244.838772,242 250.632758,243.593896 255.856046,246.776571 C261.081894,249.956687 265.243122,254.16273 268.347409,259.381907 C271.446577,264.60876 273,270.319154 273,276.520765 L273,384 L163.53103,384 Z" id="Fill-45"></path>
                <polygon id="Fill-46" points="514 384 514 196 548.706344 196 548.706344 295.614358 570.9466 295.614358 620.072843 242.389577 656 242.389577 656 253.130976 601.497581 313.193513 656 373.256049 656 384 620.072843 384 570.9466 330.775219 548.706344 330.775219 548.706344 384"></polygon>
            </g>
        </g>
    </g>
</svg>
